<?xml version="1.0" encoding="UTF-8" ?>
<!DOCTYPE svg PUBLIC "-//W3C//DTD SVG 1.1//EN" "http://www.w3.org/Graphics/SVG/1.1/DTD/svg11.dtd">
<svg width="512pt" height="512pt" viewBox="0 0 512 512" version="1.1" xmlns="http://www.w3.org/2000/svg">
<g id="#353b1dff">
<path fill="#353b1d" opacity="1.00" d=" M 240.62 109.89 C 242.54 96.27 248.06 83.13 256.12 72.02 C 264.48 83.21 269.52 96.64 271.93 110.34 C 273.94 109.95 275.96 109.55 277.97 109.15 C 277.01 112.02 275.89 114.91 275.90 117.99 C 275.73 122.97 277.90 127.57 279.63 132.12 C 281.68 131.24 283.74 130.39 285.82 129.57 C 284.92 138.58 288.52 147.14 288.19 156.11 C 290.91 155.43 293.63 154.77 296.39 154.27 C 295.24 156.34 294.05 158.39 292.77 160.39 C 291.62 161.59 291.74 163.30 292.43 164.71 C 294.57 170.57 293.93 176.87 293.78 182.97 C 295.96 182.67 298.14 182.36 300.33 182.11 C 298.35 186.83 295.34 191.16 294.28 196.24 C 293.64 199.44 293.08 202.68 292.82 205.94 C 292.37 210.49 294.95 214.97 293.46 219.48 C 291.84 225.15 289.07 230.40 286.83 235.84 C 288.23 236.44 289.64 237.03 291.05 237.63 C 286.92 244.14 284.13 251.37 282.82 258.97 C 285.95 259.21 289.05 259.78 292.04 260.79 C 293.80 257.90 295.73 255.08 296.93 251.90 C 298.25 248.35 298.04 244.50 298.23 240.79 C 300.31 241.92 302.38 243.09 304.47 244.22 C 307.16 238.92 310.02 233.54 314.39 229.41 C 319.34 224.73 325.98 222.51 331.25 218.26 C 334.68 215.73 337.25 212.27 339.59 208.75 C 340.79 209.81 342.01 210.86 343.26 211.88 C 345.97 210.07 348.84 208.44 351.29 206.27 C 353.67 204.10 354.18 200.74 355.27 197.87 C 356.84 199.32 358.42 200.78 359.99 202.24 C 369.93 193.03 383.13 186.06 397.02 187.00 C 398.74 186.75 399.44 188.42 400.56 189.37 C 391.99 194.74 385.70 203.00 380.61 211.59 C 378.38 215.31 376.61 219.31 375.68 223.56 C 379.09 223.32 382.74 222.58 385.94 224.23 C 386.30 226.22 384.09 226.84 382.82 227.78 C 375.93 231.65 369.22 236.66 365.83 244.02 C 369.78 244.08 373.76 243.84 377.70 244.33 C 377.64 244.66 377.52 245.32 377.46 245.65 C 373.61 248.13 368.92 249.31 365.64 252.65 C 362.93 255.45 361.11 258.96 359.38 262.41 C 357.89 265.17 358.61 268.49 357.40 271.32 C 354.61 276.23 349.49 278.99 344.98 282.06 C 343.81 282.67 344.01 284.30 345.12 284.87 C 349.15 283.61 352.62 281.03 356.67 279.82 C 359.27 278.97 362.04 279.39 364.72 279.59 C 365.62 278.79 366.51 277.99 367.42 277.20 C 367.11 278.76 366.81 280.33 366.50 281.89 C 363.40 281.06 360.13 279.97 356.92 280.89 C 350.76 282.31 346.54 287.51 340.74 289.73 C 335.13 292.07 329.45 294.30 324.04 297.09 C 329.21 292.78 335.80 290.91 341.39 287.27 C 333.20 288.11 325.35 291.16 318.45 295.59 C 317.09 297.34 315.81 299.15 314.55 300.97 C 316.20 299.88 317.81 298.72 319.36 297.48 C 319.78 297.91 320.62 298.77 321.04 299.20 C 321.54 299.67 322.05 300.15 322.57 300.62 C 320.27 301.23 317.97 301.86 315.68 302.50 C 313.26 303.18 310.80 303.74 308.33 304.23 C 309.74 301.19 311.68 298.36 314.34 296.28 C 321.54 290.33 330.56 287.43 339.25 284.41 C 336.76 284.09 334.28 283.79 331.80 283.48 C 336.34 282.21 341.00 281.22 345.32 279.28 C 348.94 277.67 351.73 274.77 354.51 272.03 C 353.02 271.04 351.54 270.06 350.05 269.08 C 353.26 266.64 356.46 264.00 358.39 260.38 C 360.78 256.05 363.37 251.81 366.74 248.16 C 364.99 248.47 363.23 248.77 361.49 249.06 C 364.12 239.41 372.33 233.09 379.06 226.30 C 376.59 227.13 374.11 227.96 371.62 228.76 C 373.52 220.54 377.07 212.76 381.83 205.81 C 385.45 200.59 390.21 196.33 394.69 191.86 C 394.54 191.24 394.25 190.01 394.11 189.40 C 379.18 189.19 366.41 198.60 356.48 208.86 C 355.98 207.80 355.47 206.75 354.96 205.70 C 349.20 209.58 343.98 214.17 339.12 219.11 C 339.05 217.81 338.98 216.52 338.91 215.22 C 335.43 217.63 331.77 219.82 328.54 222.58 C 324.60 226.02 322.11 230.69 319.44 235.10 C 319.21 233.02 318.97 230.93 318.74 228.85 C 315.72 231.43 312.60 234.01 310.41 237.37 C 307.28 242.10 305.62 247.59 303.83 252.93 C 303.10 251.07 302.36 249.22 301.62 247.38 C 297.88 253.96 294.76 260.98 289.66 266.68 C 284.59 272.45 281.28 279.43 277.87 286.25 C 278.12 278.44 280.54 270.94 284.18 264.08 C 282.71 265.05 281.24 266.01 279.78 266.97 C 280.06 258.16 282.67 249.68 285.98 241.58 C 284.88 241.51 283.78 241.44 282.68 241.38 C 285.10 233.89 289.00 226.97 291.15 219.38 C 289.71 219.42 288.28 219.45 286.85 219.50 C 290.16 209.22 291.13 198.39 294.19 188.05 C 292.62 189.04 291.06 190.04 289.51 191.05 C 291.91 180.82 291.33 170.18 289.69 159.88 C 288.04 161.14 286.41 162.41 284.79 163.69 C 285.45 159.22 286.20 154.69 285.73 150.15 C 285.20 145.07 283.85 140.13 282.78 135.15 C 281.42 136.87 280.07 138.60 278.72 140.33 C 277.08 132.25 274.52 124.40 272.72 116.36 C 271.82 116.77 270.93 117.19 270.05 117.62 C 269.29 108.71 267.95 99.76 264.48 91.45 C 262.42 85.92 260.15 80.24 255.54 76.30 C 250.63 83.77 246.97 92.04 244.71 100.68 C 243.25 106.29 242.88 112.10 242.16 117.83 C 241.26 117.00 240.38 116.16 239.49 115.33 C 238.26 124.32 234.27 132.71 233.76 141.84 C 232.40 139.53 231.02 137.23 229.61 134.95 C 226.97 144.00 225.56 153.49 227.22 162.87 C 225.70 162.02 224.18 161.18 222.66 160.35 C 220.34 170.05 220.62 180.14 222.15 189.94 C 220.76 189.35 219.38 188.76 218.00 188.17 C 221.27 198.52 221.81 209.52 225.64 219.71 C 224.08 219.50 222.53 219.29 220.98 219.10 C 223.17 226.76 227.23 233.71 229.38 241.38 C 228.31 241.39 227.24 241.39 226.18 241.40 C 229.53 249.54 232.10 258.09 232.27 266.95 C 230.82 265.98 229.38 265.01 227.95 264.05 C 231.70 270.82 234.05 278.33 234.22 286.11 C 231.90 281.39 229.73 276.57 226.77 272.21 C 223.76 267.63 219.84 263.71 217.00 259.02 C 214.67 255.21 212.87 251.12 210.83 247.16 C 209.99 249.07 209.14 250.98 208.28 252.88 C 206.51 247.27 204.74 241.52 201.34 236.64 C 199.22 233.55 196.28 231.15 193.42 228.77 C 193.17 230.91 192.93 233.05 192.70 235.19 C 190.09 230.66 187.71 225.76 183.58 222.39 C 180.31 219.70 176.62 217.59 173.10 215.27 C 173.35 216.85 173.61 218.44 173.86 220.03 C 168.73 214.35 162.83 209.45 156.43 205.25 C 156.23 206.48 156.02 207.70 155.81 208.93 C 151.56 204.58 147.43 200.01 142.20 196.80 C 134.76 192.25 126.15 188.90 117.29 189.74 C 119.61 193.03 122.19 196.13 124.89 199.12 C 132.31 207.46 138.19 217.42 140.48 228.44 C 138.91 228.32 137.34 228.20 135.77 228.09 C 141.26 234.97 148.65 240.69 151.24 249.47 C 149.92 249.36 148.60 249.24 147.28 249.13 C 151.83 256.35 155.13 264.83 162.72 269.52 C 161.03 270.13 159.35 270.74 157.67 271.37 C 160.12 274.20 162.61 277.20 166.06 278.85 C 170.51 280.99 175.36 282.03 180.09 283.35 C 177.91 283.78 175.74 284.19 173.56 284.59 C 182.88 287.81 192.63 291.14 199.88 298.13 C 202.68 300.60 203.24 304.42 204.54 307.72 C 205.45 310.22 207.22 312.25 208.82 314.32 C 203.91 310.64 198.94 307.03 194.22 303.10 C 194.12 304.40 194.02 305.72 193.92 307.03 C 188.00 301.56 181.53 296.22 173.43 294.53 C 173.21 295.92 172.99 297.32 172.78 298.73 C 165.79 292.71 156.63 290.82 147.83 289.14 C 145.04 288.83 142.41 290.35 139.65 290.36 C 134.01 288.87 129.31 285.20 124.60 281.92 C 124.56 283.32 124.51 284.72 124.47 286.13 C 119.74 284.96 114.96 283.69 110.75 281.16 C 106.75 278.77 102.96 276.05 98.82 273.91 C 100.98 284.90 108.27 294.35 117.79 300.07 C 115.12 300.67 112.44 301.26 109.77 301.88 C 115.03 310.44 124.12 315.72 133.37 318.99 C 128.69 318.95 124.01 319.03 119.34 319.29 C 119.22 320.85 119.10 322.40 118.99 323.96 C 123.73 324.74 128.47 325.52 133.18 326.43 C 128.99 327.41 124.65 328.03 120.67 329.73 C 117.96 330.54 118.33 333.83 117.74 336.04 C 122.69 335.57 127.53 334.42 132.42 333.53 C 139.56 332.25 146.82 333.38 154.02 332.98 C 158.50 332.82 163.00 332.05 167.48 332.70 C 171.54 333.21 175.63 334.39 179.74 333.65 C 183.04 333.07 186.22 331.96 189.46 331.13 C 185.76 333.55 181.58 335.71 177.01 335.28 C 171.02 335.44 164.82 331.11 159.20 334.83 C 163.78 338.89 169.87 340.12 175.82 340.33 C 174.95 341.87 174.08 343.41 173.22 344.95 C 182.75 341.25 193.06 342.36 203.01 341.11 C 213.83 339.97 223.35 346.52 233.93 347.43 C 232.97 347.88 232.00 348.32 231.04 348.77 C 231.79 349.00 232.54 349.23 233.30 349.48 C 240.72 352.58 247.74 357.50 256.06 357.73 C 260.95 357.52 265.47 355.39 270.21 354.41 C 270.66 354.41 271.57 354.40 272.02 354.40 C 265.57 357.50 258.60 359.28 251.60 360.60 C 244.66 361.84 237.65 363.02 230.57 362.87 C 237.43 361.11 244.55 360.74 251.38 358.88 C 244.71 356.12 237.78 353.96 231.36 350.62 C 221.17 345.35 209.61 339.80 197.89 342.95 C 192.61 344.54 186.73 344.85 182.13 348.17 C 179.42 350.24 177.63 353.24 176.10 356.23 C 176.06 355.35 175.99 353.59 175.95 352.70 C 169.45 357.13 163.59 362.48 156.63 366.25 C 159.14 367.33 161.66 368.39 164.19 369.45 C 158.90 372.48 152.26 374.82 150.40 381.32 C 157.48 379.59 164.29 376.59 171.66 376.23 C 172.02 372.92 171.08 368.66 174.24 366.46 C 173.31 377.45 170.49 388.19 169.85 399.21 C 182.01 399.14 193.74 395.06 204.39 389.45 C 217.79 382.38 232.80 378.28 247.97 378.00 C 258.03 377.96 268.18 377.46 278.11 379.46 C 276.69 379.51 275.26 379.62 273.84 379.70 C 269.84 379.95 265.84 379.52 261.87 379.04 C 260.91 383.46 260.50 387.99 260.71 392.51 C 265.06 389.95 269.51 387.52 274.30 385.86 C 274.73 387.25 275.23 388.62 275.72 390.00 C 277.96 390.12 280.20 390.24 282.44 390.37 C 282.57 387.41 282.79 384.46 283.08 381.52 C 281.57 381.10 280.07 380.69 278.57 380.29 C 279.01 380.16 279.88 379.90 280.32 379.77 C 282.61 380.10 284.85 380.68 287.09 381.26 C 286.17 381.58 285.25 381.91 284.34 382.25 C 284.16 385.31 283.95 388.36 283.71 391.41 C 279.06 391.31 274.42 390.47 269.76 390.80 C 266.69 390.82 264.83 393.52 263.06 395.63 C 260.43 391.87 255.46 392.58 251.59 393.50 C 249.74 393.85 248.09 394.80 246.75 396.09 C 244.19 394.00 241.51 391.09 237.89 391.51 C 234.01 391.74 230.16 392.36 226.29 392.61 C 225.66 390.09 225.35 387.41 224.02 385.14 C 222.49 384.47 220.88 384.04 219.30 383.56 C 218.85 391.64 218.99 399.73 219.16 407.82 C 220.73 408.58 222.31 409.35 223.90 410.09 C 222.35 410.00 220.80 409.97 219.26 409.94 C 219.12 416.09 219.02 422.26 219.39 428.41 C 222.05 427.29 225.44 426.65 226.78 423.76 C 228.59 420.10 230.32 415.11 227.16 411.66 C 228.33 411.24 229.51 410.82 230.68 410.41 C 229.08 407.63 226.90 405.34 224.41 403.36 C 225.15 402.21 226.16 401.28 226.96 400.18 C 226.67 398.58 226.38 396.97 226.10 395.37 C 231.33 396.54 235.59 400.88 241.19 400.31 C 238.88 401.36 235.88 401.73 234.50 404.11 C 232.87 406.93 231.87 410.05 230.72 413.08 C 240.41 414.62 250.24 413.78 260.00 414.02 C 265.51 413.87 271.07 414.43 276.54 413.63 C 278.57 413.57 278.62 411.20 279.39 409.83 C 280.04 410.16 280.69 410.49 281.35 410.82 C 279.52 417.18 281.62 425.76 288.99 427.21 C 291.11 421.29 289.68 414.83 289.91 408.68 C 288.34 408.90 286.79 409.11 285.24 409.41 C 286.82 408.58 288.42 407.73 289.75 406.52 C 290.42 403.74 290.25 400.84 290.31 398.00 C 290.21 392.54 290.79 386.82 288.57 381.66 C 301.51 384.94 312.49 393.04 325.31 396.64 C 330.89 398.45 336.78 399.06 342.63 399.00 C 341.07 385.63 338.37 372.42 336.87 359.04 C 339.56 364.48 340.39 370.51 340.21 376.53 C 347.89 376.14 354.83 379.83 362.19 381.33 C 359.30 375.47 353.63 372.07 347.94 369.42 C 350.56 368.33 353.19 367.24 355.81 366.14 C 350.48 363.33 345.77 359.61 341.30 355.62 C 339.64 353.84 337.19 354.06 335.00 354.23 C 332.07 348.15 325.64 345.14 319.31 343.99 C 313.70 342.51 307.92 341.83 302.13 341.87 C 309.04 340.26 316.04 342.17 323.00 342.06 C 328.43 341.95 333.73 343.24 338.85 344.91 C 337.98 343.37 337.11 341.82 336.24 340.29 C 341.64 339.77 347.73 339.64 351.95 335.74 C 352.57 333.49 349.69 333.05 348.08 333.23 C 342.45 333.93 336.85 336.12 331.11 334.93 C 326.54 334.24 322.86 331.24 319.46 328.34 C 324.43 330.68 329.32 333.95 335.02 333.93 C 340.48 333.85 345.81 332.00 351.30 332.55 C 357.85 333.15 364.43 333.12 371.00 332.90 C 378.74 332.65 386.20 334.95 393.76 336.15 C 393.89 334.35 394.03 332.55 394.17 330.75 C 389.22 328.88 384.12 327.40 378.91 326.43 C 383.61 325.56 388.33 324.74 393.05 323.94 C 392.96 322.36 392.87 320.78 392.79 319.20 C 385.87 318.49 378.91 319.18 372.23 321.10 C 372.51 319.98 372.80 318.86 373.10 317.75 C 380.03 320.09 386.76 316.14 392.27 312.27 C 396.41 309.51 399.64 305.66 402.48 301.62 C 399.80 301.20 397.13 300.80 394.46 300.39 C 399.10 296.43 404.28 292.87 407.67 287.67 C 410.64 283.57 412.44 278.77 413.48 273.84 C 409.12 276.29 405.07 279.27 400.64 281.61 C 396.55 283.77 392.07 285.00 387.65 286.24 C 387.63 284.84 387.61 283.43 387.60 282.03 C 383.75 284.45 380.61 287.77 378.41 291.74 C 375.22 291.40 372.03 291.07 368.84 290.77 C 368.83 289.14 368.84 287.52 368.88 285.90 C 369.99 287.49 370.93 289.68 373.07 290.04 C 375.09 290.25 377.13 289.92 379.15 289.75 C 378.41 288.36 377.95 286.79 376.67 285.78 C 383.41 285.08 386.27 278.56 389.59 273.64 C 390.89 276.42 391.24 279.46 391.34 282.50 C 396.98 281.65 402.19 279.09 406.79 275.78 C 410.69 272.88 413.20 268.57 416.86 265.41 C 417.64 277.46 409.99 287.88 402.77 296.78 C 404.64 296.93 406.51 297.09 408.38 297.26 C 404.60 305.08 397.83 310.73 390.71 315.41 C 392.18 317.28 393.77 319.10 394.89 321.22 C 394.98 323.30 393.79 325.16 393.12 327.06 C 394.47 328.99 396.00 330.86 396.86 333.09 C 396.53 335.50 394.94 338.53 392.05 338.03 C 385.62 337.55 379.48 335.00 372.99 335.02 C 369.66 335.05 366.70 336.76 363.57 337.64 C 360.52 339.02 357.69 334.86 354.71 336.70 C 350.65 338.82 346.59 340.99 342.19 342.37 C 342.95 344.97 343.66 347.58 344.24 350.22 C 340.37 348.84 336.63 347.08 332.64 346.08 C 334.72 349.84 338.94 351.29 342.05 353.99 C 345.18 356.54 347.70 360.00 351.56 361.53 C 354.44 362.76 357.59 361.68 360.55 361.36 C 360.13 365.15 357.34 367.67 354.78 370.17 C 357.71 373.59 361.93 375.78 364.28 379.73 C 365.62 381.68 365.83 384.11 366.25 386.38 C 360.86 384.64 356.04 381.51 350.53 380.11 C 348.50 382.29 345.61 382.43 342.83 382.21 C 343.28 388.51 344.66 394.69 345.19 400.98 C 334.03 405.95 322.09 408.94 310.10 411.12 C 305.94 411.94 301.64 412.21 297.60 413.58 C 296.32 418.58 297.46 423.92 296.96 429.05 C 292.56 430.40 287.77 429.47 283.88 427.13 C 280.12 424.60 279.20 419.87 277.80 415.87 C 267.91 417.21 257.91 417.15 247.95 416.82 C 242.45 416.31 236.94 415.69 231.41 415.87 C 230.48 420.56 229.35 426.19 224.74 428.66 C 221.56 430.18 217.94 431.15 214.40 430.76 C 213.37 430.08 212.33 429.10 212.23 427.79 C 211.69 422.98 212.08 418.11 211.87 413.28 C 196.49 410.94 180.84 408.02 166.85 400.93 C 167.48 394.29 169.25 387.81 169.62 381.14 C 168.03 381.51 166.45 381.94 164.86 382.31 C 163.90 381.53 162.94 380.75 161.90 380.09 C 156.17 381.22 151.42 385.05 145.73 386.36 C 146.21 379.28 152.61 375.51 156.96 370.82 C 155.86 367.33 152.09 365.18 151.53 361.31 C 154.50 361.73 157.67 363.02 160.59 361.72 C 164.36 360.03 166.87 356.60 170.05 354.10 C 173.19 351.40 177.51 349.97 179.48 346.08 C 175.46 347.07 171.71 348.83 167.85 350.28 C 168.46 347.61 169.22 344.98 170.00 342.36 C 165.06 340.83 160.70 338.00 155.94 336.10 C 153.95 336.69 152.03 337.48 150.01 337.93 C 146.56 337.31 143.49 335.30 139.98 335.02 C 133.17 334.71 126.77 337.72 120.04 338.02 C 117.69 338.40 115.79 336.17 115.80 333.96 C 115.21 330.94 117.87 328.97 119.63 326.98 C 118.66 325.36 117.61 323.77 116.98 321.99 C 117.72 319.61 119.79 317.96 121.11 315.92 C 119.22 313.45 116.55 311.78 114.19 309.81 C 109.90 306.38 106.16 302.13 103.91 297.08 C 106.10 297.22 108.28 297.41 110.46 297.59 C 106.75 292.93 102.45 288.65 99.78 283.25 C 97.07 277.71 94.65 271.72 95.06 265.42 C 99.49 268.47 101.91 273.58 106.38 276.56 C 110.64 279.48 115.48 281.50 120.54 282.51 C 120.80 279.46 121.40 276.45 122.56 273.62 C 125.96 279.03 129.54 285.29 136.32 286.82 C 139.39 288.49 140.35 284.54 141.91 282.71 C 147.10 288.23 154.98 288.38 161.86 290.09 C 165.85 291.04 170.11 290.49 173.98 292.00 C 179.97 294.32 185.33 297.91 190.92 301.01 C 191.69 299.05 192.59 297.14 193.49 295.23 C 185.50 290.29 176.41 287.51 167.16 286.13 C 167.42 284.79 167.67 283.46 167.92 282.13 C 163.30 279.66 158.53 276.94 155.58 272.45 C 153.60 269.90 154.81 266.40 153.46 263.60 C 151.65 259.90 149.67 256.20 146.87 253.15 C 143.47 249.47 138.65 247.73 134.19 245.71 C 134.41 245.28 134.85 244.41 135.08 243.97 C 138.88 244.30 142.71 244.31 146.49 243.68 C 142.09 235.13 133.67 230.05 125.61 225.44 C 128.63 222.60 132.72 223.07 136.49 223.61 C 134.83 215.21 129.79 207.99 124.60 201.38 C 120.82 196.33 115.48 192.81 111.33 188.12 C 119.53 185.45 128.34 187.70 135.95 191.13 C 142.07 193.81 147.14 198.25 152.52 202.11 C 153.94 200.68 155.37 199.26 156.81 197.85 C 157.91 200.70 158.34 204.12 160.82 206.20 C 163.42 208.33 166.29 210.09 168.98 212.11 C 170.08 210.91 171.20 209.71 172.31 208.51 C 174.66 211.82 177.05 215.19 180.23 217.77 C 184.55 221.35 189.75 223.59 194.40 226.65 C 200.63 230.85 204.46 237.56 207.60 244.19 C 209.70 243.08 211.77 241.92 213.86 240.80 C 213.19 248.36 216.31 255.48 220.74 261.42 C 222.66 263.91 224.92 266.12 227.19 268.30 C 225.58 265.43 223.89 262.62 222.25 259.78 C 224.50 259.54 226.77 259.35 229.03 259.11 C 228.38 251.46 225.56 244.15 221.05 237.95 C 222.44 237.23 223.83 236.51 225.22 235.79 C 223.03 230.27 220.32 224.94 218.66 219.23 C 217.13 214.95 220.13 210.79 219.56 206.47 C 219.14 202.74 218.49 199.02 217.67 195.35 C 216.58 190.63 213.94 186.51 211.78 182.24 C 213.90 182.33 216.03 182.45 218.16 182.51 L 218.74 182.52 C 219.19 181.14 218.88 179.69 218.54 178.33 C 216.94 172.58 220.05 166.97 219.72 161.24 C 218.79 158.83 217.16 156.79 215.81 154.61 C 218.51 154.88 221.20 155.25 223.84 155.89 C 223.28 146.98 227.90 138.59 226.14 129.66 C 228.38 130.40 230.60 131.20 232.82 131.99 C 235.83 124.97 237.59 116.96 234.41 109.65 C 236.48 109.73 238.55 109.82 240.62 109.89 M 284.93 268.44 C 286.77 266.91 288.25 265.00 289.18 262.78 C 287.22 264.21 285.76 266.16 284.93 268.44 M 194.66 297.31 C 193.94 298.71 195.88 301.02 197.37 300.31 C 198.24 298.87 196.15 296.60 194.66 297.31 M 223.77 383.61 C 230.37 385.55 237.14 386.82 243.88 388.16 C 243.52 388.59 242.80 389.44 242.44 389.86 C 242.56 389.91 242.82 390.00 242.94 390.04 L 243.61 389.96 C 244.49 391.00 245.37 392.05 246.25 393.11 C 247.06 392.98 248.68 392.71 249.49 392.58 C 248.37 391.22 246.89 389.87 245.00 389.79 C 249.39 388.72 253.56 390.97 257.88 391.33 C 260.67 387.98 259.91 383.18 260.19 379.11 C 255.51 378.99 250.84 378.98 246.17 379.32 C 238.59 379.89 230.70 380.08 223.77 383.61 M 215.18 388.00 C 214.60 396.12 215.59 404.32 214.41 412.42 C 213.65 417.58 213.70 422.81 214.09 428.01 C 215.38 428.06 216.67 428.11 217.97 428.17 C 218.32 420.78 217.79 413.39 217.99 406.01 C 217.91 398.85 218.29 391.66 217.59 384.53 C 216.62 385.55 215.11 386.38 215.18 388.00 M 291.21 402.98 C 290.81 410.95 290.57 418.93 290.86 426.91 C 292.22 426.92 293.58 426.94 294.95 426.96 C 295.04 412.97 295.02 398.91 293.78 384.97 C 293.30 384.82 292.33 384.51 291.84 384.35 C 290.68 390.50 291.58 396.77 291.21 402.98 M 226.78 385.60 C 226.78 387.49 226.81 389.38 226.85 391.28 C 229.32 391.17 231.79 391.03 234.26 390.86 C 233.57 389.53 233.19 388.00 232.15 386.90 C 230.40 386.31 228.58 385.97 226.78 385.60 M 295.92 385.67 C 295.61 394.14 295.57 402.63 295.88 411.10 C 307.46 409.67 318.92 407.29 330.17 404.20 C 332.99 403.41 335.66 402.16 338.29 400.89 C 332.14 399.32 325.78 398.53 319.81 396.28 C 311.52 393.47 304.23 388.42 295.92 385.67 M 193.82 395.77 C 187.08 398.49 179.86 399.51 172.78 400.88 C 175.58 402.27 178.39 403.69 181.41 404.57 C 191.82 407.63 202.49 409.71 213.22 411.20 C 213.76 403.05 214.20 394.88 213.79 386.72 C 206.87 389.15 200.74 393.34 193.82 395.77 Z" />
<path fill="#353b1d" opacity="1.00" d=" M 312.93 273.84 C 313.34 273.03 313.75 272.23 314.17 271.42 C 315.78 272.24 317.40 273.03 319.02 273.86 C 316.99 273.84 314.96 273.83 312.93 273.84 Z" />
<path fill="#353b1d" opacity="1.00" d=" M 291.51 344.94 C 294.40 343.42 297.51 342.34 300.78 342.07 C 297.73 343.17 294.62 344.05 291.51 344.94 Z" />
</g>
<g id="#8ac364ff">
<path fill="#8ac364" opacity="1.00" d=" M 255.54 76.30 C 260.15 80.24 262.42 85.92 264.48 91.45 C 267.95 99.76 269.29 108.71 270.05 117.62 C 270.93 117.19 271.82 116.77 272.72 116.36 C 274.52 124.40 277.08 132.25 278.72 140.33 C 280.07 138.60 281.42 136.87 282.78 135.15 C 283.85 140.13 285.20 145.07 285.73 150.15 C 286.20 154.69 285.45 159.22 284.79 163.69 C 286.41 162.41 288.04 161.14 289.69 159.88 C 291.33 170.18 291.91 180.82 289.51 191.05 C 291.06 190.04 292.62 189.04 294.19 188.05 C 291.13 198.39 290.16 209.22 286.85 219.50 C 288.28 219.45 289.71 219.42 291.15 219.38 C 289.00 226.97 285.10 233.89 282.68 241.38 C 283.78 241.44 284.88 241.51 285.98 241.58 C 282.67 249.68 280.06 258.16 279.78 266.97 C 281.24 266.01 282.71 265.05 284.18 264.08 C 280.54 270.94 278.12 278.44 277.87 286.25 C 281.28 279.43 284.59 272.45 289.66 266.68 C 294.76 260.98 297.88 253.96 301.62 247.38 C 302.36 249.22 303.10 251.07 303.83 252.93 C 305.62 247.59 307.28 242.10 310.41 237.37 C 312.60 234.01 315.72 231.43 318.74 228.85 C 318.97 230.93 319.21 233.02 319.44 235.10 C 322.11 230.69 324.60 226.02 328.54 222.58 C 331.77 219.82 335.43 217.63 338.91 215.22 C 338.98 216.52 339.05 217.81 339.12 219.11 C 343.98 214.17 349.20 209.58 354.96 205.70 C 355.47 206.75 355.98 207.80 356.48 208.86 C 366.41 198.60 379.18 189.19 394.11 189.40 C 394.25 190.01 394.54 191.24 394.69 191.86 C 390.21 196.33 385.45 200.59 381.83 205.81 C 377.07 212.76 373.52 220.54 371.62 228.76 C 374.11 227.96 376.59 227.13 379.06 226.30 C 372.33 233.09 364.12 239.41 361.49 249.06 C 363.23 248.77 364.99 248.47 366.74 248.16 C 363.37 251.81 360.78 256.05 358.39 260.38 C 356.46 264.00 353.26 266.64 350.05 269.08 C 351.54 270.06 353.02 271.04 354.51 272.03 C 351.73 274.77 348.94 277.67 345.32 279.28 C 341.00 281.22 336.34 282.21 331.80 283.48 C 334.28 283.79 336.76 284.09 339.25 284.41 C 330.56 287.43 321.54 290.33 314.34 296.28 C 311.68 298.36 309.74 301.19 308.33 304.23 C 307.86 305.18 307.42 306.14 306.99 307.11 C 300.70 308.02 294.80 310.56 289.20 313.47 C 288.59 313.20 287.36 312.67 286.75 312.40 C 285.62 309.00 284.80 305.36 282.61 302.44 C 280.94 300.15 277.37 298.99 275.03 300.99 C 271.08 304.08 270.59 309.47 269.68 314.04 C 271.03 314.03 272.38 314.05 273.74 314.10 C 274.83 311.77 275.76 309.30 277.39 307.29 C 279.09 306.18 279.66 308.52 280.45 309.57 C 282.16 312.10 282.29 315.19 281.70 318.08 C 279.23 319.41 276.70 320.61 274.16 321.79 C 270.65 321.85 267.12 321.49 263.64 322.04 C 260.20 322.46 256.73 323.59 253.26 322.79 C 250.62 322.31 248.05 321.40 245.36 321.31 C 241.70 322.48 241.17 327.28 242.59 330.35 C 244.67 335.13 250.30 336.75 255.08 337.08 C 258.75 337.52 262.08 335.70 265.27 334.17 C 274.77 330.18 285.02 328.05 294.13 323.11 C 297.64 321.19 300.24 318.09 302.86 315.14 C 302.29 316.77 301.73 318.39 301.17 320.02 C 306.75 319.50 312.28 318.41 317.55 316.47 C 327.41 312.90 337.45 309.79 347.15 305.79 C 346.77 309.62 347.94 314.63 344.47 317.34 C 341.67 319.55 338.46 321.45 334.92 322.13 C 331.53 321.67 328.54 319.84 325.42 318.55 C 327.79 320.65 330.22 323.12 333.54 323.49 C 338.22 324.16 343.95 322.81 346.39 318.40 C 348.41 314.22 348.49 309.46 349.02 304.94 C 354.07 302.46 359.05 299.81 364.15 297.41 C 364.46 299.17 364.72 300.94 364.78 302.73 C 363.42 305.45 360.24 306.41 357.77 307.85 C 357.69 311.47 357.58 315.09 357.39 318.71 C 359.77 318.93 362.17 319.16 364.56 319.42 C 365.67 316.13 366.94 312.90 368.37 309.74 C 367.76 309.51 367.15 309.29 366.54 309.07 C 365.56 311.98 364.56 314.88 363.60 317.80 C 361.97 317.54 360.35 317.29 358.74 317.04 C 359.05 314.64 358.85 312.05 359.89 309.81 C 361.31 308.58 363.00 307.71 364.63 306.80 C 365.24 304.60 365.83 302.38 366.41 300.17 C 367.02 300.07 368.25 299.86 368.86 299.76 C 371.40 302.26 374.41 304.43 376.23 307.54 C 376.73 309.59 376.70 311.72 376.88 313.81 C 377.31 311.93 377.63 310.03 377.98 308.15 C 376.86 305.94 375.11 304.16 373.54 302.29 C 374.10 302.04 375.23 301.52 375.79 301.26 C 372.13 300.05 368.60 298.47 365.06 296.98 C 366.43 294.98 367.63 292.87 368.84 290.77 C 372.03 291.07 375.22 291.40 378.41 291.74 C 380.61 287.77 383.75 284.45 387.60 282.03 C 387.61 283.43 387.63 284.84 387.65 286.24 C 392.07 285.00 396.55 283.77 400.64 281.61 C 405.07 279.27 409.12 276.29 413.48 273.84 C 412.44 278.77 410.64 283.57 407.67 287.67 C 404.28 292.87 399.10 296.43 394.46 300.39 C 397.13 300.80 399.80 301.20 402.48 301.62 C 399.64 305.66 396.41 309.51 392.27 312.27 C 386.76 316.14 380.03 320.09 373.10 317.75 C 372.80 318.86 372.51 319.98 372.23 321.10 C 378.91 319.18 385.87 318.49 392.79 319.20 C 392.87 320.78 392.96 322.36 393.05 323.94 C 388.33 324.74 383.61 325.56 378.91 326.43 C 384.12 327.40 389.22 328.88 394.17 330.75 C 394.03 332.55 393.89 334.35 393.76 336.15 C 386.20 334.95 378.74 332.65 371.00 332.90 C 364.43 333.12 357.85 333.15 351.30 332.55 C 345.81 332.00 340.48 333.85 335.02 333.93 C 329.32 333.95 324.43 330.68 319.46 328.34 C 322.86 331.24 326.54 334.24 331.11 334.93 C 336.85 336.12 342.45 333.93 348.08 333.23 C 349.69 333.05 352.57 333.49 351.95 335.74 C 347.73 339.64 341.64 339.77 336.24 340.29 C 337.11 341.82 337.98 343.37 338.85 344.91 C 333.73 343.24 328.43 341.95 323.00 342.06 C 316.04 342.17 309.04 340.26 302.13 341.87 C 301.79 341.92 301.12 342.02 300.78 342.07 C 297.51 342.34 294.40 343.42 291.51 344.94 C 291.17 345.11 290.47 345.45 290.12 345.62 C 286.02 346.31 281.88 346.72 277.78 347.36 C 279.12 347.69 280.47 348.02 281.82 348.34 C 280.98 348.65 280.13 348.97 279.31 349.32 C 278.75 349.21 277.64 349.00 277.08 348.90 C 269.77 347.49 262.37 349.50 255.01 349.04 C 248.33 349.42 241.58 347.26 235.01 349.05 C 234.58 349.15 233.73 349.37 233.30 349.48 C 232.54 349.23 231.79 349.00 231.04 348.77 C 232.00 348.32 232.97 347.88 233.93 347.43 C 223.35 346.52 213.83 339.97 203.01 341.11 C 193.06 342.36 182.75 341.25 173.22 344.95 C 174.08 343.41 174.95 341.87 175.82 340.33 C 169.87 340.12 163.78 338.89 159.20 334.83 C 164.82 331.11 171.02 335.44 177.01 335.28 C 181.58 335.71 185.76 333.55 189.46 331.13 C 186.22 331.96 183.04 333.07 179.74 333.65 C 175.63 334.39 171.54 333.21 167.48 332.70 C 163.00 332.05 158.50 332.82 154.02 332.98 C 146.82 333.38 139.56 332.25 132.42 333.53 C 127.53 334.42 122.69 335.57 117.74 336.04 C 118.33 333.83 117.96 330.54 120.67 329.73 C 124.65 328.03 128.99 327.41 133.18 326.43 C 128.47 325.52 123.73 324.74 118.99 323.96 C 119.10 322.40 119.22 320.85 119.34 319.29 C 124.01 319.03 128.69 318.95 133.37 318.99 C 124.12 315.72 115.03 310.44 109.77 301.88 C 112.44 301.26 115.12 300.67 117.79 300.07 C 108.27 294.35 100.98 284.90 98.82 273.91 C 102.96 276.05 106.75 278.77 110.75 281.16 C 114.96 283.69 119.74 284.96 124.47 286.13 C 124.51 284.72 124.56 283.32 124.60 281.92 C 129.31 285.20 134.01 288.87 139.65 290.36 C 142.41 290.35 145.04 288.83 147.83 289.14 C 156.63 290.82 165.79 292.71 172.78 298.73 C 172.99 297.32 173.21 295.92 173.43 294.53 C 181.53 296.22 188.00 301.56 193.92 307.03 C 194.02 305.72 194.12 304.40 194.22 303.10 C 198.94 307.03 203.91 310.64 208.82 314.32 C 207.22 312.25 205.45 310.22 204.54 307.72 C 203.24 304.42 202.68 300.60 199.88 298.13 C 192.63 291.14 182.88 287.81 173.56 284.59 C 175.74 284.19 177.91 283.78 180.09 283.35 C 175.36 282.03 170.51 280.99 166.06 278.85 C 162.61 277.20 160.12 274.20 157.67 271.37 C 159.35 270.74 161.03 270.13 162.72 269.52 C 155.13 264.83 151.83 256.35 147.28 249.13 C 148.60 249.24 149.92 249.36 151.24 249.47 C 148.65 240.69 141.26 234.97 135.77 228.09 C 137.34 228.20 138.91 228.32 140.48 228.44 C 138.19 217.42 132.31 207.46 124.89 199.12 C 122.19 196.13 119.61 193.03 117.29 189.74 C 126.15 188.90 134.76 192.25 142.20 196.80 C 147.43 200.01 151.56 204.58 155.81 208.93 C 156.02 207.70 156.23 206.48 156.43 205.25 C 162.83 209.45 168.73 214.35 173.86 220.03 C 173.61 218.44 173.35 216.85 173.10 215.27 C 176.62 217.59 180.31 219.70 183.58 222.39 C 187.71 225.76 190.09 230.66 192.70 235.19 C 192.93 233.05 193.17 230.91 193.42 228.77 C 196.28 231.15 199.22 233.55 201.34 236.64 C 204.74 241.52 206.51 247.27 208.28 252.88 C 209.14 250.98 209.99 249.07 210.83 247.16 C 212.87 251.12 214.67 255.21 217.00 259.02 C 219.84 263.71 223.76 267.63 226.77 272.21 C 229.73 276.57 231.90 281.39 234.22 286.11 C 234.05 278.33 231.70 270.82 227.95 264.05 C 229.38 265.01 230.82 265.98 232.27 266.95 C 232.10 258.09 229.53 249.54 226.18 241.40 C 227.24 241.39 228.31 241.39 229.38 241.38 C 227.23 233.71 223.17 226.76 220.98 219.10 C 222.53 219.29 224.08 219.50 225.64 219.71 C 221.81 209.52 221.27 198.52 218.00 188.17 C 219.38 188.76 220.76 189.35 222.15 189.94 C 220.62 180.14 220.34 170.05 222.66 160.35 C 224.18 161.18 225.70 162.02 227.22 162.87 C 225.56 153.49 226.97 144.00 229.61 134.95 C 231.02 137.23 232.40 139.53 233.76 141.84 C 234.27 132.71 238.26 124.32 239.49 115.33 C 240.38 116.16 241.26 117.00 242.16 117.83 C 242.88 112.10 243.25 106.29 244.71 100.68 C 246.97 92.04 250.63 83.77 255.54 76.30 M 256.17 141.64 C 257.31 143.98 258.07 146.51 257.67 149.14 C 256.79 159.88 258.25 170.78 256.11 181.40 C 256.50 184.57 256.84 187.78 256.49 190.97 C 255.81 198.60 256.15 206.26 256.15 213.90 C 255.30 214.24 254.46 214.59 253.62 214.95 C 254.41 216.88 255.62 218.73 255.42 220.92 C 255.30 230.32 255.16 239.73 255.42 249.13 C 255.52 246.44 255.56 243.74 255.94 241.08 C 255.99 238.74 258.36 237.64 259.82 236.18 C 258.51 236.46 257.19 236.74 255.88 237.02 C 255.69 233.07 255.70 229.11 256.10 225.18 C 256.98 216.54 256.61 207.85 257.16 199.20 C 258.05 198.55 258.94 197.90 259.84 197.25 C 259.23 197.02 258.01 196.57 257.40 196.34 C 258.09 186.11 257.58 175.84 258.69 165.65 C 259.02 147.68 258.09 129.72 256.39 111.83 C 255.28 121.76 259.33 131.96 256.17 141.64 M 162.18 232.60 C 163.12 233.51 164.06 234.42 165.00 235.34 C 165.02 232.87 165.04 230.41 165.07 227.94 C 164.09 229.49 163.14 231.04 162.18 232.60 M 347.46 227.94 C 347.31 230.17 347.45 232.48 346.79 234.65 C 345.22 237.26 342.84 239.24 340.68 241.34 C 343.80 240.48 346.96 239.82 350.15 239.29 C 348.34 239.22 346.53 239.13 344.72 239.05 C 346.23 236.86 348.25 234.90 349.15 232.34 C 348.72 230.82 348.05 229.39 347.46 227.94 M 167.84 237.74 C 166.11 238.64 163.92 238.86 161.99 239.63 C 164.61 239.75 167.52 239.56 169.73 241.23 C 172.13 242.98 174.21 245.11 176.54 246.95 C 173.96 243.59 171.03 240.53 167.84 237.74 M 336.28 243.78 C 334.74 244.92 336.54 247.66 338.03 246.09 C 339.58 244.94 337.77 242.25 336.28 243.78 M 329.81 253.91 C 331.88 252.19 333.71 250.19 335.24 247.97 C 333.14 249.67 331.31 251.67 329.81 253.91 M 180.94 251.87 C 181.63 253.23 182.33 254.60 183.02 255.98 C 180.97 256.15 178.92 256.32 176.86 256.49 C 180.05 256.78 183.24 257.07 186.43 257.42 C 184.58 255.58 182.77 253.71 180.94 251.87 M 326.41 256.47 C 329.30 256.74 332.22 256.80 335.12 256.59 C 332.26 255.88 329.26 255.41 326.41 256.47 M 322.10 261.30 C 321.34 260.61 320.59 259.93 319.84 259.25 C 320.32 260.84 320.81 262.43 321.30 264.02 C 322.97 262.11 324.64 260.20 326.30 258.28 C 324.88 259.27 323.49 260.28 322.10 261.30 M 187.78 260.57 C 189.10 262.08 190.44 263.58 191.77 265.07 C 191.84 263.47 191.90 261.88 191.97 260.28 C 191.60 260.58 190.87 261.18 190.50 261.48 C 189.59 261.17 188.68 260.87 187.78 260.57 M 312.93 273.84 C 314.96 273.83 316.99 273.84 319.02 273.86 C 317.40 273.03 315.78 272.24 314.17 271.42 C 313.75 272.23 313.34 273.03 312.93 273.84 M 192.58 273.82 C 195.23 273.92 197.89 273.92 200.53 273.65 C 197.97 272.04 195.20 272.69 192.58 273.82 M 201.72 276.09 C 200.54 277.32 202.60 279.45 203.85 278.25 C 205.03 277.01 202.97 274.88 201.72 276.09 M 203.24 280.08 C 201.34 280.90 203.30 283.26 204.76 282.26 C 206.66 281.44 204.70 279.06 203.24 280.08 M 307.32 280.28 C 306.26 281.58 308.51 283.16 309.45 281.84 C 310.50 280.53 308.25 278.94 307.32 280.28 M 134.21 295.73 C 132.24 295.64 132.25 298.78 134.17 298.83 C 136.15 299.06 135.99 295.79 134.21 295.73 M 135.46 301.26 C 136.36 301.53 138.18 302.05 139.08 302.32 C 137.29 304.09 134.72 305.53 133.97 308.05 C 134.41 311.84 136.63 315.12 138.19 318.53 C 136.63 318.85 135.07 319.19 133.51 319.54 C 135.78 320.13 138.02 320.78 140.27 321.45 C 139.22 316.75 136.55 312.69 135.00 308.18 C 137.92 304.60 141.48 301.56 145.63 299.48 C 146.27 302.06 146.87 304.64 147.47 307.23 C 149.26 308.07 151.70 308.35 152.53 310.42 C 153.04 312.65 152.99 314.96 153.09 317.23 C 151.83 317.32 150.56 317.45 149.30 317.42 C 147.09 315.11 146.69 311.73 145.68 308.83 C 145.26 309.15 144.41 309.78 143.98 310.10 C 145.58 313.10 146.70 316.32 147.36 319.65 C 149.91 319.37 152.46 319.10 155.01 318.85 C 154.52 315.11 154.42 311.34 154.67 307.59 C 152.00 306.38 148.61 305.46 147.52 302.39 C 147.06 300.77 146.15 298.03 148.41 297.41 C 151.95 297.14 155.72 297.62 158.94 299.17 C 164.90 304.39 162.60 313.34 166.34 319.66 C 171.50 325.31 181.91 325.33 186.45 318.82 C 183.10 320.00 179.83 322.37 176.13 321.91 C 172.71 320.52 169.51 318.61 166.62 316.33 C 164.73 311.53 165.45 305.95 162.61 301.48 C 160.26 296.51 153.96 295.82 149.11 296.04 C 144.56 297.72 140.45 300.90 135.46 301.26 M 377.24 296.58 C 375.92 297.74 378.00 299.53 379.08 298.27 C 380.41 297.12 378.30 295.33 377.24 296.58 M 231.12 301.13 C 227.42 304.04 226.39 308.89 225.56 313.27 C 227.24 313.27 228.91 313.65 230.42 314.38 C 231.31 311.88 232.17 309.38 233.07 306.89 C 233.70 306.99 234.95 307.19 235.57 307.29 C 236.40 309.49 237.00 311.83 238.33 313.82 C 239.60 314.09 240.88 314.31 242.18 314.47 C 241.88 310.03 241.35 305.17 238.21 301.73 C 236.48 299.77 233.10 299.18 231.12 301.13 M 192.17 327.37 C 191.03 327.23 189.83 328.73 190.63 329.73 C 192.02 330.94 194.12 327.91 192.17 327.37 Z" />
<path fill="#8ac364" opacity="1.00" d=" M 156.63 366.25 C 163.59 362.48 169.45 357.13 175.95 352.70 C 175.99 353.59 176.06 355.35 176.10 356.23 C 175.79 357.58 175.48 358.93 175.16 360.28 C 173.74 360.91 172.77 363.50 174.91 363.84 C 174.66 364.70 174.44 365.57 174.24 366.46 C 171.08 368.66 172.02 372.92 171.66 376.23 C 164.29 376.59 157.48 379.59 150.40 381.32 C 152.26 374.82 158.90 372.48 164.19 369.45 C 161.66 368.39 159.14 367.33 156.63 366.25 Z" />
<path fill="#8ac364" opacity="1.00" d=" M 335.00 354.23 C 337.19 354.06 339.64 353.84 341.30 355.62 C 345.77 359.61 350.48 363.33 355.81 366.14 C 353.19 367.24 350.56 368.33 347.94 369.42 C 353.63 372.07 359.30 375.47 362.19 381.33 C 354.83 379.83 347.89 376.14 340.21 376.53 C 340.39 370.51 339.56 364.48 336.87 359.04 C 336.28 357.42 335.67 355.81 335.00 354.23 Z" />
<path fill="#8ac364" opacity="1.00" d=" M 223.77 383.61 C 230.70 380.08 238.59 379.89 246.17 379.32 C 250.84 378.98 255.51 378.99 260.19 379.11 C 259.91 383.18 260.67 387.98 257.88 391.33 C 253.56 390.97 249.39 388.72 245.00 389.79 C 244.65 389.83 243.96 389.92 243.61 389.96 L 242.94 390.04 C 242.82 390.00 242.56 389.91 242.44 389.86 C 242.80 389.44 243.52 388.59 243.88 388.16 C 237.14 386.82 230.37 385.55 223.77 383.61 Z" />
</g>
<g id="#373c1eff">
<path fill="#373c1e" opacity="1.00" d=" M 256.17 141.64 C 259.33 131.96 255.28 121.76 256.39 111.83 C 258.09 129.72 259.02 147.68 258.69 165.65 C 257.58 175.84 258.09 186.11 257.40 196.34 C 258.01 196.57 259.23 197.02 259.84 197.25 C 258.94 197.90 258.05 198.55 257.16 199.20 C 256.61 207.85 256.98 216.54 256.10 225.18 C 255.70 229.11 255.69 233.07 255.88 237.02 C 257.19 236.74 258.51 236.46 259.82 236.18 C 258.36 237.64 255.99 238.74 255.94 241.08 C 255.56 243.74 255.52 246.44 255.42 249.13 C 255.16 239.73 255.30 230.32 255.42 220.92 C 255.62 218.73 254.41 216.88 253.62 214.95 C 254.46 214.59 255.30 214.24 256.15 213.90 C 256.15 206.26 255.81 198.60 256.49 190.97 C 256.84 187.78 256.50 184.57 256.11 181.40 C 258.25 170.78 256.79 159.88 257.67 149.14 C 258.07 146.51 257.31 143.98 256.17 141.64 Z" />
<path fill="#373c1e" opacity="1.00" d=" M 347.46 227.94 C 348.05 229.39 348.72 230.82 349.15 232.34 C 348.25 234.90 346.23 236.86 344.72 239.05 C 346.53 239.13 348.34 239.22 350.15 239.29 C 346.96 239.82 343.80 240.48 340.68 241.34 C 342.84 239.24 345.22 237.26 346.79 234.65 C 347.45 232.48 347.31 230.17 347.46 227.94 Z" />
<path fill="#373c1e" opacity="1.00" d=" M 322.10 261.30 C 323.49 260.28 324.88 259.27 326.30 258.28 C 324.64 260.20 322.97 262.11 321.30 264.02 C 320.81 262.43 320.32 260.84 319.84 259.25 C 320.59 259.93 321.34 260.61 322.10 261.30 Z" />
<path fill="#373c1e" opacity="1.00" d=" M 187.78 260.57 C 188.68 260.87 189.59 261.17 190.50 261.48 C 190.87 261.18 191.60 260.58 191.97 260.28 C 191.90 261.88 191.84 263.47 191.77 265.07 C 190.44 263.58 189.10 262.08 187.78 260.57 Z" />
<path fill="#373c1e" opacity="1.00" d=" M 231.12 301.13 C 233.10 299.18 236.48 299.77 238.21 301.73 C 241.35 305.17 241.88 310.03 242.18 314.47 C 240.88 314.31 239.60 314.09 238.33 313.82 C 237.00 311.83 236.40 309.49 235.57 307.29 C 234.95 307.19 233.70 306.99 233.07 306.89 C 232.17 309.38 231.31 311.88 230.42 314.38 C 228.91 313.65 227.24 313.27 225.56 313.27 C 226.39 308.89 227.42 304.04 231.12 301.13 Z" />
<path fill="#373c1e" opacity="1.00" d=" M 275.03 300.99 C 277.37 298.99 280.94 300.15 282.61 302.44 C 284.80 305.36 285.62 309.00 286.75 312.40 C 287.36 312.67 288.59 313.20 289.20 313.47 C 286.61 314.86 284.22 316.57 281.70 318.08 C 282.29 315.19 282.16 312.10 280.45 309.57 C 279.66 308.52 279.09 306.18 277.39 307.29 C 275.76 309.30 274.83 311.77 273.74 314.10 C 272.38 314.05 271.03 314.03 269.68 314.04 C 270.59 309.47 271.08 304.08 275.03 300.99 Z" />
<path fill="#373c1e" opacity="1.00" d=" M 245.36 321.31 C 248.05 321.40 250.62 322.31 253.26 322.79 C 256.73 323.59 260.20 322.46 263.64 322.04 C 267.12 321.49 270.65 321.85 274.16 321.79 C 268.43 325.41 261.16 327.65 257.84 334.05 C 260.31 334.14 262.79 334.20 265.27 334.17 C 262.08 335.70 258.75 337.52 255.08 337.08 C 250.30 336.75 244.67 335.13 242.59 330.35 C 241.17 327.28 241.70 322.48 245.36 321.31 M 249.28 324.02 C 251.36 325.95 253.70 328.54 256.86 327.91 C 259.41 327.75 261.21 325.88 262.89 324.18 C 258.35 324.55 253.81 324.57 249.28 324.02 Z" />
<path fill="#373c1e" opacity="1.00" d=" M 206.95 385.90 C 213.15 381.34 220.58 378.84 228.03 377.18 C 220.86 379.75 213.83 382.63 206.95 385.90 Z" />
<path fill="#373c1e" opacity="1.00" d=" M 287.96 378.07 C 291.53 378.88 295.01 380.10 298.15 382.00 C 294.63 381.06 291.22 379.72 287.96 378.07 Z" />
</g>
<g id="#44483f7f">
<path fill="#44483f" opacity="0.50" d=" M 292.43 164.71 C 291.74 163.30 291.62 161.59 292.77 160.39 C 294.06 161.38 293.83 163.90 292.43 164.71 Z" />
</g>
<g id="#3f403a61">
<path fill="#3f403a" opacity="0.38" d=" M 218.54 178.33 C 218.88 179.69 219.19 181.14 218.74 182.52 L 218.16 182.51 C 216.92 181.50 217.06 179.01 218.54 178.33 Z" />
</g>
<g id="#506634ff">
<path fill="#506634" opacity="1.00" d=" M 162.18 232.60 C 163.14 231.04 164.09 229.49 165.07 227.94 C 165.04 230.41 165.02 232.87 165.00 235.34 C 164.06 234.42 163.12 233.51 162.18 232.60 Z" />
</g>
<g id="#343a1eff">
<path fill="#343a1e" opacity="1.00" d=" M 167.84 237.74 C 171.03 240.53 173.96 243.59 176.54 246.95 C 174.21 245.11 172.13 242.98 169.73 241.23 C 167.52 239.56 164.61 239.75 161.99 239.63 C 163.92 238.86 166.11 238.64 167.84 237.74 Z" />
<path fill="#343a1e" opacity="1.00" d=" M 329.81 253.91 C 331.31 251.67 333.14 249.67 335.24 247.97 C 333.71 250.19 331.88 252.19 329.81 253.91 Z" />
<path fill="#343a1e" opacity="1.00" d=" M 180.94 251.87 C 182.77 253.71 184.58 255.58 186.43 257.42 C 183.24 257.07 180.05 256.78 176.86 256.49 C 178.92 256.32 180.97 256.15 183.02 255.98 C 182.33 254.60 181.63 253.23 180.94 251.87 Z" />
<path fill="#343a1e" opacity="1.00" d=" M 326.41 256.47 C 329.26 255.41 332.26 255.88 335.12 256.59 C 332.22 256.80 329.30 256.74 326.41 256.47 Z" />
<path fill="#343a1e" opacity="1.00" d=" M 134.21 295.73 C 135.99 295.79 136.15 299.06 134.17 298.83 C 132.25 298.78 132.24 295.64 134.21 295.73 Z" />
<path fill="#343a1e" opacity="1.00" d=" M 364.15 297.41 C 364.37 297.31 364.83 297.09 365.06 296.98 C 368.60 298.47 372.13 300.05 375.79 301.26 C 375.23 301.52 374.10 302.04 373.54 302.29 C 375.11 304.16 376.86 305.94 377.98 308.15 C 377.63 310.03 377.31 311.93 376.88 313.81 C 376.70 311.72 376.73 309.59 376.23 307.54 C 374.41 304.43 371.40 302.26 368.86 299.76 C 368.25 299.86 367.02 300.07 366.41 300.17 C 365.83 302.38 365.24 304.60 364.63 306.80 C 363.00 307.71 361.31 308.58 359.89 309.81 C 358.85 312.05 359.05 314.64 358.74 317.04 C 360.35 317.29 361.97 317.54 363.60 317.80 C 364.56 314.88 365.56 311.98 366.54 309.07 C 367.15 309.29 367.76 309.51 368.37 309.74 C 366.94 312.90 365.67 316.13 364.56 319.42 C 362.17 319.16 359.77 318.93 357.39 318.71 C 357.58 315.09 357.69 311.47 357.77 307.85 C 360.24 306.41 363.42 305.45 364.78 302.73 C 364.72 300.94 364.46 299.17 364.15 297.41 Z" />
<path fill="#343a1e" opacity="1.00" d=" M 347.15 305.79 C 347.62 305.58 348.55 305.15 349.02 304.94 C 348.49 309.46 348.41 314.22 346.39 318.40 C 343.95 322.81 338.22 324.16 333.54 323.49 C 330.22 323.12 327.79 320.65 325.42 318.55 C 328.54 319.84 331.53 321.67 334.92 322.13 C 338.46 321.45 341.67 319.55 344.47 317.34 C 347.94 314.63 346.77 309.62 347.15 305.79 Z" />
<path fill="#343a1e" opacity="1.00" d=" M 211.87 344.96 C 216.74 345.82 221.37 347.82 225.25 350.90 C 220.67 349.21 216.19 347.24 211.87 344.96 Z" />
<path fill="#343a1e" opacity="1.00" d=" M 277.78 347.36 C 281.88 346.72 286.02 346.31 290.12 345.62 C 284.71 348.93 279.08 351.90 273.07 353.97 C 275.14 352.41 277.15 350.76 279.31 349.32 C 280.13 348.97 280.98 348.65 281.82 348.34 C 280.47 348.02 279.12 347.69 277.78 347.36 Z" />
<path fill="#343a1e" opacity="1.00" d=" M 286.77 350.90 C 291.00 347.79 295.87 345.54 301.11 344.89 C 296.40 347.05 291.61 349.03 286.77 350.90 Z" />
<path fill="#343a1e" opacity="1.00" d=" M 321.95 353.81 C 323.86 361.40 319.95 369.21 314.04 373.91 C 316.37 370.21 319.19 366.71 320.42 362.45 C 321.19 359.62 321.48 356.69 321.95 353.81 Z" />
<path fill="#343a1e" opacity="1.00" d=" M 198.59 374.29 C 192.69 369.70 188.74 362.37 190.23 354.76 C 190.97 358.24 191.31 361.88 192.83 365.15 C 194.33 368.44 196.62 371.27 198.59 374.29 Z" />
<path fill="#343a1e" opacity="1.00" d=" M 267.85 399.23 C 273.54 400.36 277.84 395.75 283.02 394.42 C 282.64 396.16 282.24 397.91 281.82 399.65 C 282.95 400.24 284.08 400.83 285.22 401.43 C 282.79 403.91 280.49 406.51 278.44 409.32 C 275.83 408.12 276.03 405.36 276.02 402.95 C 273.39 401.53 270.62 400.37 267.85 399.23 Z" />
</g>
<g id="#485a2eff">
<path fill="#485a2e" opacity="1.00" d=" M 336.28 243.78 C 337.77 242.25 339.58 244.94 338.03 246.09 C 336.54 247.66 334.74 244.92 336.28 243.78 Z" />
</g>
<g id="#855245f9">
<path fill="#855245" opacity="0.98" d=" M 220.74 261.42 C 221.12 261.01 221.87 260.19 222.25 259.78 C 223.89 262.62 225.58 265.43 227.19 268.30 C 224.92 266.12 222.66 263.91 220.74 261.42 Z" />
</g>
<g id="#97554cff">
<path fill="#97554c" opacity="1.00" d=" M 284.93 268.44 C 285.76 266.16 287.22 264.21 289.18 262.78 C 288.25 265.00 286.77 266.91 284.93 268.44 Z" />
</g>
<g id="#46552bff">
<path fill="#46552b" opacity="1.00" d=" M 192.58 273.82 C 195.20 272.69 197.97 272.04 200.53 273.65 C 197.89 273.92 195.23 273.92 192.58 273.82 Z" />
</g>
<g id="#484a34e5">
<path fill="#484a34" opacity="0.90" d=" M 367.83 275.13 C 369.23 275.33 370.85 275.00 372.10 275.80 C 373.90 278.99 374.89 282.57 376.67 285.78 C 373.40 283.82 372.12 280.30 371.42 276.75 C 370.22 276.21 369.02 275.67 367.83 275.13 Z" />
</g>
<g id="#536b37ff">
<path fill="#536b37" opacity="1.00" d=" M 201.72 276.09 C 202.97 274.88 205.03 277.01 203.85 278.25 C 202.60 279.45 200.54 277.32 201.72 276.09 Z" />
</g>
<g id="#fdfdfaff">
<path fill="#fdfdfa" opacity="1.00" d=" M 367.83 275.13 C 369.02 275.67 370.22 276.21 371.42 276.75 C 372.12 280.30 373.40 283.82 376.67 285.78 C 377.95 286.79 378.41 288.36 379.15 289.75 C 377.13 289.92 375.09 290.25 373.07 290.04 C 370.93 289.68 369.99 287.49 368.88 285.90 L 368.90 285.01 C 369.20 283.37 368.76 283.01 367.58 283.93 C 367.31 283.42 366.77 282.40 366.50 281.89 C 366.81 280.33 367.11 278.76 367.42 277.20 C 367.53 276.68 367.73 275.65 367.83 275.13 Z" />
</g>
<g id="#546c37ff">
<path fill="#546c37" opacity="1.00" d=" M 203.24 280.08 C 204.70 279.06 206.66 281.44 204.76 282.26 C 203.30 283.26 201.34 280.90 203.24 280.08 Z" />
</g>
<g id="#4d6131ff">
<path fill="#4d6131" opacity="1.00" d=" M 307.32 280.28 C 308.25 278.94 310.50 280.53 309.45 281.84 C 308.51 283.16 306.26 281.58 307.32 280.28 Z" />
</g>
<g id="#fffefaff">
<path fill="#fffefa" opacity="1.00" d=" M 356.92 280.89 C 360.13 279.97 363.40 281.06 366.50 281.89 C 366.77 282.40 367.31 283.42 367.58 283.93 C 367.91 284.20 368.57 284.74 368.90 285.01 L 368.88 285.90 C 368.84 287.52 368.83 289.14 368.84 290.77 C 367.63 292.87 366.43 294.98 365.06 296.98 C 364.83 297.09 364.37 297.31 364.15 297.41 C 359.05 299.81 354.07 302.46 349.02 304.94 C 348.55 305.15 347.62 305.58 347.15 305.79 C 337.45 309.79 327.41 312.90 317.55 316.47 C 312.28 318.41 306.75 319.50 301.17 320.02 C 301.73 318.39 302.29 316.77 302.86 315.14 C 300.24 318.09 297.64 321.19 294.13 323.11 C 285.02 328.05 274.77 330.18 265.27 334.17 C 262.79 334.20 260.31 334.14 257.84 334.05 C 261.16 327.65 268.43 325.41 274.16 321.79 C 276.70 320.61 279.23 319.41 281.70 318.08 C 284.22 316.57 286.61 314.86 289.20 313.47 C 294.80 310.56 300.70 308.02 306.99 307.11 C 313.67 306.48 320.32 305.61 326.78 303.72 C 323.07 303.47 319.37 303.03 315.68 302.50 C 317.97 301.86 320.27 301.23 322.57 300.62 C 322.05 300.15 321.54 299.67 321.04 299.20 C 322.03 298.49 323.03 297.78 324.04 297.09 C 329.45 294.30 335.13 292.07 340.74 289.73 C 346.54 287.51 350.76 282.31 356.92 280.89 M 341.60 293.58 C 344.37 293.86 347.15 294.07 349.94 294.22 L 350.00 292.76 C 347.18 292.82 344.39 293.22 341.60 293.58 M 297.33 317.50 C 295.93 317.68 294.07 319.21 294.60 320.73 C 296.08 321.49 298.98 318.54 297.33 317.50 Z" />
<path fill="#fffefa" opacity="1.00" d=" M 261.87 379.04 C 265.84 379.52 269.84 379.95 273.84 379.70 C 273.95 381.75 274.05 383.81 274.30 385.86 C 269.51 387.52 265.06 389.95 260.71 392.51 C 260.50 387.99 260.91 383.46 261.87 379.04 Z" />
</g>
<g id="#5a5f4dff">
<path fill="#5a5f4d" opacity="1.00" d=" M 367.58 283.93 C 368.76 283.01 369.20 283.37 368.90 285.01 C 368.57 284.74 367.91 284.20 367.58 283.93 Z" />
</g>
<g id="#bfc0b7ff">
<path fill="#bfc0b7" opacity="1.00" d=" M 341.60 293.58 C 344.39 293.22 347.18 292.82 350.00 292.76 L 349.94 294.22 C 347.15 294.07 344.37 293.86 341.60 293.58 Z" />
</g>
<g id="#4f6433ff">
<path fill="#4f6433" opacity="1.00" d=" M 135.46 301.26 C 140.45 300.90 144.56 297.72 149.11 296.04 C 153.96 295.82 160.26 296.51 162.61 301.48 C 165.45 305.95 164.73 311.53 166.62 316.33 C 169.51 318.61 172.71 320.52 176.13 321.91 C 179.83 322.37 183.10 320.00 186.45 318.82 C 181.91 325.33 171.50 325.31 166.34 319.66 C 162.60 313.34 164.90 304.39 158.94 299.17 C 155.72 297.62 151.95 297.14 148.41 297.41 C 146.15 298.03 147.06 300.77 147.52 302.39 C 148.61 305.46 152.00 306.38 154.67 307.59 C 154.42 311.34 154.52 315.11 155.01 318.85 C 152.46 319.10 149.91 319.37 147.36 319.65 C 146.70 316.32 145.58 313.10 143.98 310.10 C 144.41 309.78 145.26 309.15 145.68 308.83 C 146.69 311.73 147.09 315.11 149.30 317.42 C 150.56 317.45 151.83 317.32 153.09 317.23 C 152.99 314.96 153.04 312.65 152.53 310.42 C 151.70 308.35 149.26 308.07 147.47 307.23 C 146.87 304.64 146.27 302.06 145.63 299.48 C 141.48 301.56 137.92 304.60 135.00 308.18 C 136.55 312.69 139.22 316.75 140.27 321.45 C 138.02 320.78 135.78 320.13 133.51 319.54 C 135.07 319.19 136.63 318.85 138.19 318.53 C 136.63 315.12 134.41 311.84 133.97 308.05 C 134.72 305.53 137.29 304.09 139.08 302.32 C 138.18 302.05 136.36 301.53 135.46 301.26 Z" />
</g>
<g id="#cb6261ff">
<path fill="#cb6261" opacity="1.00" d=" M 314.55 300.97 C 315.81 299.15 317.09 297.34 318.45 295.59 C 318.68 296.07 319.13 297.01 319.36 297.48 C 317.81 298.72 316.20 299.88 314.55 300.97 Z" />
</g>
<g id="#4d6232ff">
<path fill="#4d6232" opacity="1.00" d=" M 377.24 296.58 C 378.30 295.33 380.41 297.12 379.08 298.27 C 378.00 299.53 375.92 297.74 377.24 296.58 Z" />
</g>
<g id="#ab5953ff">
<path fill="#ab5953" opacity="1.00" d=" M 194.66 297.31 C 196.15 296.60 198.24 298.87 197.37 300.31 C 195.88 301.02 193.94 298.71 194.66 297.31 Z" />
</g>
<g id="#e9e9e6ff">
<path fill="#e9e9e6" opacity="1.00" d=" M 308.33 304.23 C 310.80 303.74 313.26 303.18 315.68 302.50 C 319.37 303.03 323.07 303.47 326.78 303.72 C 320.32 305.61 313.67 306.48 306.99 307.11 C 307.42 306.14 307.86 305.18 308.33 304.23 Z" />
</g>
<g id="#bdbeb7ff">
<path fill="#bdbeb7" opacity="1.00" d=" M 297.33 317.50 C 298.98 318.54 296.08 321.49 294.60 320.73 C 294.07 319.21 295.93 317.68 297.33 317.50 Z" />
</g>
<g id="#fffefbff">
<path fill="#fffefb" opacity="1.00" d=" M 249.28 324.02 C 253.81 324.57 258.35 324.55 262.89 324.18 C 261.21 325.88 259.41 327.75 256.86 327.91 C 253.70 328.54 251.36 325.95 249.28 324.02 Z" />
<path fill="#fffefb" opacity="1.00" d=" M 285.24 409.41 C 286.79 409.11 288.34 408.90 289.91 408.68 C 289.68 414.83 291.11 421.29 288.99 427.21 C 281.62 425.76 279.52 417.18 281.35 410.82 C 282.64 410.35 283.94 409.88 285.24 409.41 Z" />
<path fill="#fffefb" opacity="1.00" d=" M 219.26 409.94 C 220.80 409.97 222.35 410.00 223.90 410.09 C 225.00 410.58 226.09 411.10 227.16 411.66 C 230.32 415.11 228.59 420.10 226.78 423.76 C 225.44 426.65 222.05 427.29 219.39 428.41 C 219.02 422.26 219.12 416.09 219.26 409.94 Z" />
</g>
<g id="#4a5d2fff">
<path fill="#4a5d2f" opacity="1.00" d=" M 192.17 327.37 C 194.12 327.91 192.02 330.94 190.63 329.73 C 189.83 328.73 191.03 327.23 192.17 327.37 Z" />
</g>
<g id="#cddfebff">
<path fill="#cddfeb" opacity="1.00" d=" M 197.89 342.95 C 209.61 339.80 221.17 345.35 231.36 350.62 C 237.78 353.96 244.71 356.12 251.38 358.88 C 244.55 360.74 237.43 361.11 230.57 362.87 C 237.65 363.02 244.66 361.84 251.60 360.60 C 258.60 359.28 265.57 357.50 272.02 354.40 C 272.28 354.29 272.81 354.08 273.07 353.97 C 279.08 351.90 284.71 348.93 290.12 345.62 C 290.47 345.45 291.17 345.11 291.51 344.94 C 294.62 344.05 297.73 343.17 300.78 342.07 C 301.12 342.02 301.79 341.92 302.13 341.87 C 307.92 341.83 313.70 342.51 319.31 343.99 C 325.64 345.14 332.07 348.15 335.00 354.23 C 335.67 355.81 336.28 357.42 336.87 359.04 C 338.37 372.42 341.07 385.63 342.63 399.00 C 336.78 399.06 330.89 398.45 325.31 396.64 C 312.49 393.04 301.51 384.94 288.57 381.66 C 288.20 381.56 287.46 381.36 287.09 381.26 C 284.85 380.68 282.61 380.10 280.32 379.77 C 279.77 379.69 278.66 379.54 278.11 379.46 C 268.18 377.46 258.03 377.96 247.97 378.00 C 232.80 378.28 217.79 382.38 204.39 389.45 C 193.74 395.06 182.01 399.14 169.85 399.21 C 170.49 388.19 173.31 377.45 174.24 366.46 C 174.44 365.57 174.66 364.70 174.91 363.84 C 175.32 362.68 175.40 361.50 175.16 360.28 C 175.48 358.93 175.79 357.58 176.10 356.23 C 177.63 353.24 179.42 350.24 182.13 348.17 C 186.73 344.85 192.61 344.54 197.89 342.95 M 211.87 344.96 C 216.19 347.24 220.67 349.21 225.25 350.90 C 221.37 347.82 216.74 345.82 211.87 344.96 M 286.77 350.90 C 291.61 349.03 296.40 347.05 301.11 344.89 C 295.87 345.54 291.00 347.79 286.77 350.90 M 321.95 353.81 C 321.48 356.69 321.19 359.62 320.42 362.45 C 319.19 366.71 316.37 370.21 314.04 373.91 C 319.95 369.21 323.86 361.40 321.95 353.81 M 198.59 374.29 C 196.62 371.27 194.33 368.44 192.83 365.15 C 191.31 361.88 190.97 358.24 190.23 354.76 C 188.74 362.37 192.69 369.70 198.59 374.29 M 206.95 385.90 C 213.83 382.63 220.86 379.75 228.03 377.18 C 220.58 378.84 213.15 381.34 206.95 385.90 M 287.96 378.07 C 291.22 379.72 294.63 381.06 298.15 382.00 C 295.01 380.10 291.53 378.88 287.96 378.07 Z" />
<path fill="#cddfeb" opacity="1.00" d=" M 295.92 385.67 C 304.23 388.42 311.52 393.47 319.81 396.28 C 325.78 398.53 332.14 399.32 338.29 400.89 C 335.66 402.16 332.99 403.41 330.17 404.20 C 318.92 407.29 307.46 409.67 295.88 411.10 C 295.57 402.63 295.61 394.14 295.92 385.67 Z" />
<path fill="#cddfeb" opacity="1.00" d=" M 193.82 395.77 C 200.74 393.34 206.87 389.15 213.79 386.72 C 214.20 394.88 213.76 403.05 213.22 411.20 C 202.49 409.71 191.82 407.63 181.41 404.57 C 178.39 403.69 175.58 402.27 172.78 400.88 C 179.86 399.51 187.08 398.49 193.82 395.77 Z" />
<path fill="#cddfeb" opacity="1.00" d=" M 251.59 393.50 C 255.46 392.58 260.43 391.87 263.06 395.63 C 264.48 397.03 265.95 398.49 267.85 399.23 C 270.62 400.37 273.39 401.53 276.02 402.95 C 276.03 405.36 275.83 408.12 278.44 409.32 L 279.39 409.83 C 278.62 411.20 278.57 413.57 276.54 413.63 C 271.07 414.43 265.51 413.87 260.00 414.02 C 250.24 413.78 240.41 414.62 230.72 413.08 C 231.87 410.05 232.87 406.93 234.50 404.11 C 235.88 401.73 238.88 401.36 241.19 400.31 C 243.43 399.50 245.02 397.63 246.75 396.09 C 248.09 394.80 249.74 393.85 251.59 393.50 Z" />
</g>
<g id="#323d19ff">
<path fill="#323d19" opacity="1.00" d=" M 235.01 349.05 C 241.58 347.26 248.33 349.42 255.01 349.04 C 262.37 349.50 269.77 347.49 277.08 348.90 C 274.90 349.07 272.74 349.40 270.57 349.67 C 258.72 350.38 246.83 350.18 235.01 349.05 Z" />
</g>
<g id="#cddfeaff">
<path fill="#cddfea" opacity="1.00" d=" M 233.30 349.48 C 233.73 349.37 234.58 349.15 235.01 349.05 C 246.83 350.18 258.72 350.38 270.57 349.67 C 271.22 349.77 272.52 349.96 273.17 350.06 C 270.94 350.78 268.69 351.45 266.44 352.14 C 267.69 352.90 268.94 353.67 270.21 354.41 C 265.47 355.39 260.95 357.52 256.06 357.73 C 247.74 357.50 240.72 352.58 233.30 349.48 Z" />
</g>
<g id="#aab8b4ff">
<path fill="#aab8b4" opacity="1.00" d=" M 270.57 349.67 C 272.74 349.40 274.90 349.07 277.08 348.90 C 277.64 349.00 278.75 349.21 279.31 349.32 C 277.15 350.76 275.14 352.41 273.07 353.97 C 272.81 354.08 272.28 354.29 272.02 354.40 C 271.57 354.40 270.66 354.41 270.21 354.41 C 268.94 353.67 267.69 352.90 266.44 352.14 C 268.69 351.45 270.94 350.78 273.17 350.06 C 272.52 349.96 271.22 349.77 270.57 349.67 Z" />
</g>
<g id="#313d17ff">
<path fill="#313d17" opacity="1.00" d=" M 174.91 363.84 C 172.77 363.50 173.74 360.91 175.16 360.28 C 175.40 361.50 175.32 362.68 174.91 363.84 Z" />
</g>
<g id="#8c601aff">
<path fill="#8c601a" opacity="1.00" d=" M 278.11 379.46 C 278.66 379.54 279.77 379.69 280.32 379.77 C 279.88 379.90 279.01 380.16 278.57 380.29 C 277.34 383.44 276.48 386.71 275.72 390.00 C 275.23 388.62 274.73 387.25 274.30 385.86 C 274.05 383.81 273.95 381.75 273.84 379.70 C 275.26 379.62 276.69 379.51 278.11 379.46 Z" />
</g>
<g id="#f58f1fff">
<path fill="#f58f1f" opacity="1.00" d=" M 275.72 390.00 C 276.48 386.71 277.34 383.44 278.57 380.29 C 280.07 380.69 281.57 381.10 283.08 381.52 C 282.79 384.46 282.57 387.41 282.44 390.37 C 280.20 390.24 277.96 390.12 275.72 390.00 Z" />
</g>
<g id="#f7901fff">
<path fill="#f7901f" opacity="1.00" d=" M 287.09 381.26 C 287.46 381.36 288.20 381.56 288.57 381.66 C 290.79 386.82 290.21 392.54 290.31 398.00 C 290.25 400.84 290.42 403.74 289.75 406.52 C 288.42 407.73 286.82 408.58 285.24 409.41 C 283.94 409.88 282.64 410.35 281.35 410.82 C 280.69 410.49 280.04 410.16 279.39 409.83 L 278.44 409.32 C 280.49 406.51 282.79 403.91 285.22 401.43 C 284.08 400.83 282.95 400.24 281.82 399.65 C 282.24 397.91 282.64 396.16 283.02 394.42 C 277.84 395.75 273.54 400.36 267.85 399.23 C 265.95 398.49 264.48 397.03 263.06 395.63 C 264.83 393.52 266.69 390.82 269.76 390.80 C 274.42 390.47 279.06 391.31 283.71 391.41 C 283.95 388.36 284.16 385.31 284.34 382.25 C 285.25 381.91 286.17 381.58 287.09 381.26 Z" />
<path fill="#f7901f" opacity="1.00" d=" M 219.30 383.56 C 220.88 384.04 222.49 384.47 224.02 385.14 C 225.35 387.41 225.66 390.09 226.29 392.61 C 230.16 392.36 234.01 391.74 237.89 391.51 C 241.51 391.09 244.19 394.00 246.75 396.09 C 245.02 397.63 243.43 399.50 241.19 400.31 C 235.59 400.88 231.33 396.54 226.10 395.37 C 226.38 396.97 226.67 398.58 226.96 400.18 C 226.16 401.28 225.15 402.21 224.41 403.36 C 226.90 405.34 229.08 407.63 230.68 410.41 C 229.51 410.82 228.33 411.24 227.16 411.66 C 226.09 411.10 225.00 410.58 223.90 410.09 C 222.31 409.35 220.73 408.58 219.16 407.82 C 218.99 399.73 218.85 391.64 219.30 383.56 Z" />
</g>
<g id="#babdb3ff">
<path fill="#babdb3" opacity="1.00" d=" M 215.18 388.00 C 215.11 386.38 216.62 385.55 217.59 384.53 C 218.29 391.66 217.91 398.85 217.99 406.01 C 217.79 413.39 218.32 420.78 217.97 428.17 C 216.67 428.11 215.38 428.06 214.09 428.01 C 213.70 422.81 213.65 417.58 214.41 412.42 C 215.59 404.32 214.60 396.12 215.18 388.00 Z" />
</g>
<g id="#bec0b6ff">
<path fill="#bec0b6" opacity="1.00" d=" M 291.21 402.98 C 291.58 396.77 290.68 390.50 291.84 384.35 C 292.33 384.51 293.30 384.82 293.78 384.97 C 295.02 398.91 295.04 412.97 294.95 426.96 C 293.58 426.94 292.22 426.92 290.86 426.91 C 290.57 418.93 290.81 410.95 291.21 402.98 Z" />
</g>
<g id="#f28f1fff">
<path fill="#f28f1f" opacity="1.00" d=" M 226.78 385.60 C 228.58 385.97 230.40 386.31 232.15 386.90 C 233.19 388.00 233.57 389.53 234.26 390.86 C 231.79 391.03 229.32 391.17 226.85 391.28 C 226.81 389.38 226.78 387.49 226.78 385.60 Z" />
</g>
<g id="#ecedeaff">
<path fill="#ecedea" opacity="1.00" d=" M 243.61 389.96 C 243.96 389.92 244.65 389.83 245.00 389.79 C 246.89 389.87 248.37 391.22 249.49 392.58 C 248.68 392.71 247.06 392.98 246.25 393.11 C 245.37 392.05 244.49 391.00 243.61 389.96 Z" />
</g>
</svg>
